<?xml version="1.0" encoding="UTF-8" standalone="no"?>
<svg
   xmlns:osb="http://www.openswatchbook.org/uri/2009/osb"
   xmlns:dc="http://purl.org/dc/elements/1.1/"
   xmlns:cc="http://creativecommons.org/ns#"
   xmlns:rdf="http://www.w3.org/1999/02/22-rdf-syntax-ns#"
   xmlns:svg="http://www.w3.org/2000/svg"
   xmlns="http://www.w3.org/2000/svg"
   xmlns:xlink="http://www.w3.org/1999/xlink"
   xmlns:sodipodi="http://sodipodi.sourceforge.net/DTD/sodipodi-0.dtd"
   xmlns:inkscape="http://www.inkscape.org/namespaces/inkscape"
   version="1.1"
   width="128"
   height="128"
   id="svg3049"
   sodipodi:docname="aircraft.svg"
   inkscape:version="0.92.3 (2405546, 2018-03-11)">
  <sodipodi:namedview
     pagecolor="#ffffff"
     bordercolor="#666666"
     borderopacity="1"
     objecttolerance="10"
     gridtolerance="10"
     guidetolerance="10"
     inkscape:pageopacity="0"
     inkscape:pageshadow="2"
     inkscape:window-width="1920"
     inkscape:window-height="962"
     id="namedview142"
     showgrid="false"
     inkscape:zoom="6.2109375"
     inkscape:cx="48.288399"
     inkscape:cy="66.933707"
     inkscape:window-x="0"
     inkscape:window-y="30"
     inkscape:window-maximized="1"
     inkscape:current-layer="svg3049" />
  <defs
     id="defs3051">
    <linearGradient
       inkscape:collect="always"
       id="linearGradient1069">
      <stop
         style="stop-color:#5e81ac;stop-opacity:1;"
         offset="0"
         id="stop1065" />
      <stop
         style="stop-color:#5e81ac;stop-opacity:0;"
         offset="1"
         id="stop1067" />
    </linearGradient>
    <linearGradient
       id="linearGradient959">
      <stop
         offset="0"
         style="stop-color:#eceff4;stop-opacity:1"
         id="stop955" />
      <stop
         offset="1"
         style="stop-color:#d8dee9;stop-opacity:1"
         id="stop957" />
    </linearGradient>
    <linearGradient
       id="linearGradient5803">
      <stop
         offset="0"
         style="stop-color:#fff5ef;stop-opacity:1"
         id="stop950" />
      <stop
         offset="1"
         style="stop-color:#fef8dd;stop-opacity:1"
         id="stop952" />
    </linearGradient>
    <linearGradient
       id="linearGradient4703"
       osb:paint="gradient">
      <stop
         style="stop-color:#5181b8;stop-opacity:1;"
         offset="0"
         id="stop4699" />
      <stop
         style="stop-color:#5181b8;stop-opacity:0;"
         offset="1"
         id="stop4701" />
    </linearGradient>
    <linearGradient
       id="linearGradient4681"
       osb:paint="solid">
      <stop
         style="stop-color:#5181b8;stop-opacity:1;"
         offset="0"
         id="stop4679" />
    </linearGradient>
    <linearGradient
       id="linearGradient897">
      <stop
         offset="0"
         style="stop-color:#ffa154;stop-opacity:1"
         id="stop4656" />
      <stop
         offset="1"
         style="stop-color:#f37329;stop-opacity:1"
         id="stop4658" />
    </linearGradient>
    <linearGradient
       id="linearGradient897-3">
      <stop
         id="stop893"
         style="stop-color:#81a1c1;stop-opacity:1"
         offset="0" />
      <stop
         id="stop895"
         style="stop-color:#5e81ac;stop-opacity:1"
         offset="1" />
    </linearGradient>
    <linearGradient
       id="linearGradient3924">
      <stop
         id="stop3926"
         style="stop-color:#ffffff;stop-opacity:1"
         offset="0" />
      <stop
         id="stop3928"
         style="stop-color:#ffffff;stop-opacity:0.23529412"
         offset="0.06316455" />
      <stop
         id="stop3930"
         style="stop-color:#ffffff;stop-opacity:0.15686275"
         offset="0.95056331" />
      <stop
         id="stop3932"
         style="stop-color:#ffffff;stop-opacity:0.39215687"
         offset="1" />
    </linearGradient>
    <linearGradient
       id="linearGradient3688-166-749-5">
      <stop
         id="stop2883-0"
         style="stop-color:#181818;stop-opacity:1"
         offset="0" />
      <stop
         id="stop2885-5"
         style="stop-color:#181818;stop-opacity:0"
         offset="1" />
    </linearGradient>
    <linearGradient
       id="linearGradient3688-464-309-8">
      <stop
         id="stop2889-9"
         style="stop-color:#181818;stop-opacity:1"
         offset="0" />
      <stop
         id="stop2891-4"
         style="stop-color:#181818;stop-opacity:0"
         offset="1" />
    </linearGradient>
    <linearGradient
       id="linearGradient3702-501-757-0">
      <stop
         id="stop2895-0"
         style="stop-color:#181818;stop-opacity:0"
         offset="0" />
      <stop
         id="stop2897-2"
         style="stop-color:#181818;stop-opacity:1"
         offset="0.5" />
      <stop
         id="stop2899-6"
         style="stop-color:#181818;stop-opacity:0"
         offset="1" />
    </linearGradient>
    <linearGradient
       id="linearGradient3811">
      <stop
         id="stop3813"
         style="stop-color:#000000;stop-opacity:1"
         offset="0" />
      <stop
         id="stop3815"
         style="stop-color:#000000;stop-opacity:0"
         offset="1" />
    </linearGradient>
    <radialGradient
       xlink:href="#linearGradient3688-166-749-5"
       id="radialGradient3946"
       gradientUnits="userSpaceOnUse"
       gradientTransform="matrix(2.003784,0,0,1.4,27.98813,-17.4)"
       cx="4.9929786"
       cy="43.5"
       fx="4.9929786"
       fy="43.5"
       r="2.5" />
    <radialGradient
       xlink:href="#linearGradient3688-464-309-8"
       id="radialGradient3948"
       gradientUnits="userSpaceOnUse"
       gradientTransform="matrix(2.003784,0,0,1.4,-20.01187,-104.4)"
       cx="4.9929786"
       cy="43.5"
       fx="4.9929786"
       fy="43.5"
       r="2.5" />
    <linearGradient
       xlink:href="#linearGradient3702-501-757-0"
       id="linearGradient3950"
       gradientUnits="userSpaceOnUse"
       x1="25.058096"
       y1="47.027729"
       x2="25.058096"
       y2="39.999443" />
    <linearGradient
       xlink:href="#linearGradient3924"
       id="linearGradient3965"
       gradientUnits="userSpaceOnUse"
       gradientTransform="matrix(2.7297298,0,0,2.7297298,-1.5135175,1.488319)"
       x1="23.99999"
       y1="4.999989"
       x2="23.99999"
       y2="43" />
    <radialGradient
       xlink:href="#linearGradient3811"
       id="radialGradient3976"
       gradientUnits="userSpaceOnUse"
       gradientTransform="matrix(1.5563924,0,0,0.16978827,70.270355,102.1321)"
       cx="-4.0287771"
       cy="93.467628"
       fx="-4.0287771"
       fy="93.467628"
       r="35.338131" />
    <linearGradient
       xlink:href="#linearGradient897-3"
       id="linearGradient891"
       x1="66.996674"
       y1="15.857451"
       x2="66.996674"
       y2="117.80992"
       gradientUnits="userSpaceOnUse" />
    <linearGradient
       id="linearGradient5803-6">
      <stop
         id="stop5805"
         style="stop-color:#fff5ef;stop-opacity:1"
         offset="0" />
      <stop
         id="stop5807"
         style="stop-color:#fef8dd;stop-opacity:1"
         offset="1" />
    </linearGradient>
    <linearGradient
       x1="167.98311"
       y1="8.50811"
       x2="167.98311"
       y2="54.780239"
       id="linearGradient5228-5"
       xlink:href="#linearGradient5803-6"
       gradientUnits="userSpaceOnUse"
       gradientTransform="matrix(1.832495,0,0,1.8439152,-232.17581,8.558593)" />
    <clipPath
       id="clip1">
      <path
         inkscape:connector-curvature="0"
         d="M 0,0 H 914.35937 V 517.39844 H 0 Z m 0,0"
         id="path2" />
    </clipPath>
    <clipPath
       id="clip1-3">
      <path
         inkscape:connector-curvature="0"
         d="M 0,0 H 914.35937 V 517.39844 H 0 Z m 0,0"
         id="path883" />
    </clipPath>
    <linearGradient
       inkscape:collect="always"
       xlink:href="#linearGradient1069"
       id="linearGradient1071"
       x1="11.999989"
       y1="67.001808"
       x2="115.99999"
       y2="67.001808"
       gradientUnits="userSpaceOnUse" />
    <linearGradient
       inkscape:collect="always"
       xlink:href="#linearGradient959"
       id="linearGradient1087"
       x1="29.666452"
       y1="259.11224"
       x2="851.92151"
       y2="259.11224"
       gradientUnits="userSpaceOnUse" />
    <linearGradient
       inkscape:collect="always"
       xlink:href="#linearGradient3811"
       id="linearGradient1093"
       gradientUnits="userSpaceOnUse"
       x1="63.43647"
       y1="119.56533"
       x2="63.43647"
       y2="14.030739" />
    <filter
       inkscape:collect="always"
       style="color-interpolation-filters:sRGB"
       id="filter1115"
       x="-0.084"
       width="1.168"
       y="-0.084"
       height="1.168">
      <feGaussianBlur
         inkscape:collect="always"
         stdDeviation="3.605"
         id="feGaussianBlur1117" />
    </filter>
  </defs>
  <metadata
     id="metadata3054">
    <rdf:RDF>
      <cc:Work
         rdf:about="">
        <dc:format>image/svg+xml</dc:format>
        <dc:type
           rdf:resource="http://purl.org/dc/dcmitype/StillImage" />
        <dc:title></dc:title>
      </cc:Work>
    </rdf:RDF>
  </metadata>
  <rect
     width="103"
     height="103"
     rx="50"
     ry="50"
     x="12.499989"
     y="15.501808"
     id="rect1089"
     style="color:#000000;display:inline;overflow:visible;visibility:visible;opacity:0.5;fill:url(#linearGradient1093);stroke:#5181b8;stroke-width:1;stroke-linecap:round;stroke-linejoin:round;stroke-miterlimit:4;stroke-dasharray:none;stroke-dashoffset:0;stroke-opacity:1;marker:none;enable-background:accumulate;fill-opacity:1;filter:url(#filter1115)" />
  <rect
     style="color:#000000;display:inline;overflow:visible;visibility:visible;fill:url(#linearGradient891);fill-opacity:1;fill-rule:nonzero;stroke:none;stroke-width:0.99999994;marker:none;enable-background:accumulate"
     id="rect5505-21-3"
     y="15.501808"
     x="12.499989"
     ry="50"
     rx="50"
     height="103"
     width="103" />
  <rect
     style="opacity:0.5;fill:none;stroke:url(#linearGradient3965);stroke-width:0.99999994;stroke-linecap:round;stroke-linejoin:round;stroke-miterlimit:4;stroke-dasharray:none;stroke-dashoffset:0;stroke-opacity:1"
     id="rect6741-7"
     y="16.501808"
     x="13.499989"
     ry="50"
     rx="50"
     height="101"
     width="101" />
  <rect
     style="color:#000000;display:inline;overflow:visible;visibility:visible;opacity:0.5;fill:url(#linearGradient1071);stroke:#5181b8;stroke-width:1;stroke-linecap:round;stroke-linejoin:round;stroke-miterlimit:4;stroke-dasharray:none;stroke-dashoffset:0;stroke-opacity:1;marker:none;enable-background:accumulate;fill-opacity:1"
     id="rect5505-21-3-1"
     y="15.501808"
     x="12.499989"
     ry="50"
     rx="50"
     height="103"
     width="103" />
  <g
     transform="matrix(0.10155504,-0.02480713,0.02480713,0.10155504,14.558088,54.119639)"
     id="surface68400"
     style="opacity:0.5;fill:#2e3440">
    <g
       style="clip-rule:nonzero;fill:#2e3440"
       clip-path="url(#clip1-3)"
       id="g890">
      <path
         inkscape:connector-curvature="0"
         style="fill:#2e3440;fill-opacity:1;fill-rule:nonzero;stroke:none;stroke-width:0.92709309;stroke-opacity:1"
         d="m 801.62532,150.6307 c 23.23164,9.28904 54.57898,9.28904 54.57898,34.86377 0,60.38418 -249.69948,96.38871 -258.99938,96.38871 l -82.45334,180.04437 c -5.82331,13.9245 -13.94624,17.42646 -23.25338,18.56721 l -26.72636,2.32498 V 357.40143 l -52.25401,-46.47417 c -5.81606,0 -39.51734,5.77985 -109.17245,5.77985 -81.30534,0 -103.38174,-3.46211 -109.19057,-3.46211 l -9.27093,39.48474 c -1.18058,6.99304 -20.9284,10.45877 -24.39775,5.81245 L 118.6583,302.7826 c -8.11207,0 -29.025986,-2.29238 -29.025986,-9.28904 0,-9.26006 3.48022,-12.75839 8.12293,-15.0725 L 9.4858436,195.93512 c -5.790711,-5.78708 15.1123414,-17.39747 33.6759304,-8.14103 l 85.955286,40.64723 -5.81606,-67.36272 19.75506,-3.44763 c 6.96768,-1.17335 22.08726,9.29628 26.71548,13.90278 L 230.18832,236.58961 334.7072,216.83094 285.91168,166.92725 57.126114,22.894666 76.844954,7.7823157 c 0,0 4.66081,-4.6426997 20.91029,-4.6426997 L 551.88599,179.70738 693.59363,152.98827 c 5.79795,-1.17698 30.20295,-15.1051 59.23255,-15.1051 31.38355,0 31.38355,5.7907 48.79914,12.74753"
         id="path888" />
    </g>
  </g>
  <g
     id="g965"
     transform="matrix(0.10155504,-0.02480713,0.02480713,0.10155504,14.791622,53.278429)"
     style="opacity:0.5;fill:#4c566a">
    <g
       id="g963"
       clip-path="url(#clip1-3)"
       style="clip-rule:nonzero;fill:#4c566a">
      <path
         id="path961"
         d="m 801.62532,150.6307 c 23.23164,9.28904 54.57898,9.28904 54.57898,34.86377 0,60.38418 -249.69948,96.38871 -258.99938,96.38871 l -82.45334,180.04437 c -5.82331,13.9245 -13.94624,17.42646 -23.25338,18.56721 l -26.72636,2.32498 V 357.40143 l -52.25401,-46.47417 c -5.81606,0 -39.51734,5.77985 -109.17245,5.77985 -81.30534,0 -103.38174,-3.46211 -109.19057,-3.46211 l -9.27093,39.48474 c -1.18058,6.99304 -20.9284,10.45877 -24.39775,5.81245 L 118.6583,302.7826 c -8.11207,0 -29.025986,-2.29238 -29.025986,-9.28904 0,-9.26006 3.48022,-12.75839 8.12293,-15.0725 L 9.4858436,195.93512 c -5.790711,-5.78708 15.1123414,-17.39747 33.6759304,-8.14103 l 85.955286,40.64723 -5.81606,-67.36272 19.75506,-3.44763 c 6.96768,-1.17335 22.08726,9.29628 26.71548,13.90278 L 230.18832,236.58961 334.7072,216.83094 285.91168,166.92725 57.126114,22.894666 76.844954,7.7823157 c 0,0 4.66081,-4.6426997 20.91029,-4.6426997 L 551.88599,179.70738 693.59363,152.98827 c 5.79795,-1.17698 30.20295,-15.1051 59.23255,-15.1051 31.38355,0 31.38355,5.7907 48.79914,12.74753"
         style="fill:#4c566a;fill-opacity:1;fill-rule:nonzero;stroke:none;stroke-width:0.92709309;stroke-opacity:1"
         inkscape:connector-curvature="0" />
    </g>
  </g>
  <g
     transform="matrix(0.104541,0,0,0.104541,17.721176,41.180702)"
     id="g979">
    <g
       style="clip-rule:nonzero;fill-opacity:1;fill:url(#linearGradient1087);opacity:1"
       clip-path="url(#clip1-3)"
       id="g977">
      <path
         inkscape:connector-curvature="0"
         style="fill:url(#linearGradient1087);fill-opacity:1;fill-rule:nonzero;stroke:none;stroke-width:0.92709309;stroke-opacity:1"
         d="m 789.9965,60.052504 c 24.77234,3.510952 55.22432,-3.927638 61.29309,20.916613 C 865.6185,139.62857 631.59479,233.85734 622.56052,236.06417 l -37.3745,194.46767 c -2.35275,14.90863 -9.41267,20.2381 -18.18328,23.55481 l -25.41128,8.60062 -29.76123,-121.83604 -61.78963,-32.7471 c -5.64994,1.38013 -37.01709,14.99206 -104.68267,31.52092 -78.98305,19.29341 -101.25044,21.16883 -106.89335,22.54724 l 0.36343,40.5569 c 0.51256,7.07345 -17.84881,15.12627 -22.32162,11.43592 l -53.86463,-44.24139 c -7.88037,1.92496 -28.74091,4.66084 -30.40118,-2.13598 -2.19738,-8.99557 0.3533,-13.21982 4.31427,-16.56953 L 31.233087,292.03423 c -6.998563,-4.24767 10.552349,-20.48664 30.782229,-15.89965 l 93.145604,19.08942 -21.63483,-64.05855 18.3727,-8.03695 c 6.49023,-2.79323 23.66236,3.78955 29.25149,7.16622 l 74.1286,48.86105 96.84491,-43.9962 L 292.88006,198.26023 36.450868,112.63142 52.020391,93.271526 c 0,0 3.425993,-5.616083 19.211346,-9.472016 L 554.29014,147.56076 685.60991,87.978196 c 5.35306,-2.519192 25.7559,-21.840692 53.95635,-28.729292 30.48715,-7.447183 31.86126,-1.82188 50.43024,0.8036"
         id="path975" />
    </g>
  </g>
</svg>
