<?xml version="1.0" encoding="UTF-8" standalone="no"?>
<!-- Created with Inkscape (http://www.inkscape.org/) -->
<svg xmlns:dc="http://purl.org/dc/elements/1.1/" xmlns:cc="http://creativecommons.org/ns#" xmlns:rdf="http://www.w3.org/1999/02/22-rdf-syntax-ns#" xmlns:svg="http://www.w3.org/2000/svg" xmlns="http://www.w3.org/2000/svg" xmlns:sodipodi="http://sodipodi.sourceforge.net/DTD/sodipodi-0.dtd" xmlns:inkscape="http://www.inkscape.org/namespaces/inkscape" id="svg3007" version="1.1" inkscape:version="0.48.5 r10040" width="256" height="256" sodipodi:docname="Telegram alternative logo.svg">
  <metadata id="metadata3013">
    <rdf:RDF>
      <cc:Work rdf:about="">
        <dc:format>image/svg+xml</dc:format>
        <dc:type rdf:resource="http://purl.org/dc/dcmitype/StillImage"/>
      </cc:Work>
    </rdf:RDF>
  </metadata>
  <defs id="defs3011"/>
  <sodipodi:namedview pagecolor="#ffffff" bordercolor="#666666" borderopacity="1" objecttolerance="10" gridtolerance="10" guidetolerance="10" inkscape:pageopacity="0" inkscape:pageshadow="2" inkscape:window-width="1280" inkscape:window-height="962" id="namedview3009" showgrid="false" inkscape:zoom="1.84375" inkscape:cx="260.21693" inkscape:cy="107.25686" inkscape:window-x="-8" inkscape:window-y="-8" inkscape:window-maximized="1" inkscape:current-layer="svg3007"/>
  <path style="fill:#2ca5e0;fill-opacity:1;stroke:none" d="m 252.71258,127.90582 c 0,68.61302 -55.62185,124.23487 -124.23487,124.23487 -68.613025,0 -124.2348714,-55.62185 -124.2348714,-124.23487 0,-68.613026 55.6218464,-124.2348732 124.2348714,-124.2348732 68.61302,0 124.23487,55.6218472 124.23487,124.2348732 z" id="path3019"/>
  <path style="fill:#ffffff;fill-opacity:1;stroke:none" d="m 155.91221,156.28613 c 3.82213,-10.4461 17.81729,-50.17266 20.06432,-60.591798 2.54062,-11.780443 -2.77796,-12.930544 -14.87454,-8.979356 -12.09657,3.951189 -43.11909,15.449414 -48.34049,17.302714 -5.2214,1.8533 -30.641435,10.39687 -35.911664,12.9461 -10.764524,5.77386 -5.528019,14.58535 6.505791,19.16062 35.967683,17.26467 25.754703,8.46685 41.812423,40.41274 3.30464,8.16089 11.09674,22.06171 18.5597,11.55404 3.92326,-5.97624 9.17875,-23.5903 12.18446,-31.80506 z" id="path3043"/>
</svg>